<?xml version="1.0" encoding="utf-8"?>
<!-- Generator: Adobe Illustrator 26.4.1, SVG Export Plug-In . SVG Version: 6.00 Build 0)  -->
<svg version="1.1" id="レイヤー_1" xmlns="http://www.w3.org/2000/svg" xmlns:xlink="http://www.w3.org/1999/xlink" x="0px"
	 y="0px" viewBox="0 0 62 80" style="enable-background:new 0 0 62 80;" xml:space="preserve">
<style type="text/css">
	.st0{fill:#231815;}
	
		.st1{clip-path:url(#SVGID_00000067219842606538211960000009428668713687674519_);fill:url(#SVGID_00000124872943504683064080000006262921244076395420_);}
	
		.st2{clip-path:url(#SVGID_00000067219842606538211960000009428668713687674519_);fill:url(#SVGID_00000071519714933697666800000016133933449186769590_);}
</style>
<g>
	<g>
		<g>
			<path class="st0" d="M62,80H0V0h62V80z M0.7,79.4h60.7V0.6H0.7V79.4z"/>
		</g>
	</g>
	<g>
		<rect x="5.6" y="55.3" class="st0" width="50.9" height="0.5"/>
		<g>
			<g>
				<g>
					<g>
						<path class="st0" d="M19.8,51c-1.3,0-2.1-0.3-2.9-1.2l1.7-1.7c0.3,0.3,0.6,0.5,1.2,0.5c0.8,0,1.4-0.5,1.4-1.5v-7h2.6v7.1
							C23.9,49.8,21.9,51,19.8,51z"/>
						<path class="st0" d="M31.1,47.1h-1.6v3.8h-2.6V40.1h4.3c2.4,0,3.7,1.7,3.7,3.5C34.8,45.4,33.5,47.1,31.1,47.1z M31,42.5h-1.5
							v2.2H31c0.7,0,1.1-0.5,1.1-1.1C32.1,43,31.7,42.5,31,42.5z"/>
						<path class="st0" d="M42.1,50.9l-1.8-3.3l-1.8,3.3h-3l3.4-5.5l-3.1-5.2h3l1.6,3l1.6-3h3l-3.1,5.2l3.4,5.5H42.1z"/>
					</g>
					<g>
						<defs>
							<path id="SVGID_1_" d="M22.1,36.4l-5.3-2.7V11l5.3,2.7V36.4z M29.8,34.7l-5.3-2.7V9.3l5.3,2.7V34.7z M37.5,33l-5.3-2.7V7.6
								l5.3,2.7V33z M45.2,31.3l-5.3-2.7V5.9l5.3,2.7V31.3z"/>
						</defs>
						<clipPath id="SVGID_00000093160145724971749640000017898084175374612921_">
							<use xlink:href="#SVGID_1_"  style="overflow:visible;"/>
						</clipPath>
						
							<radialGradient id="SVGID_00000053519758845352561470000001045585214323263412_" cx="15.7471" cy="1.0167" r="45.0235" gradientUnits="userSpaceOnUse">
							<stop  offset="0.65" style="stop-color:#EA601F"/>
							<stop  offset="0.75" style="stop-color:#E50012"/>
						</radialGradient>
						
							<path style="clip-path:url(#SVGID_00000093160145724971749640000017898084175374612921_);fill:url(#SVGID_00000053519758845352561470000001045585214323263412_);" d="
							M60.8,1c0,24.9-20.2,45-45,45c-24.9,0-45-20.2-45-45c0-24.9,20.2-45,45-45C40.6-44,60.8-23.8,60.8,1z"/>
						
							<radialGradient id="SVGID_00000070099401728018545490000007927144807024591779_" cx="17.0428" cy="-1.6561" r="29.9087" gradientUnits="userSpaceOnUse">
							<stop  offset="0.6" style="stop-color:#E50012"/>
							<stop  offset="0.713" style="stop-color:#BC000B"/>
							<stop  offset="0.8385" style="stop-color:#940005"/>
							<stop  offset="0.9386" style="stop-color:#7C0001"/>
							<stop  offset="1" style="stop-color:#730000"/>
						</radialGradient>
						
							<path style="clip-path:url(#SVGID_00000093160145724971749640000017898084175374612921_);fill:url(#SVGID_00000070099401728018545490000007927144807024591779_);" d="
							M47-1.7C47,14.9,33.6,28.3,17,28.3c-16.5,0-29.9-13.4-29.9-29.9S0.5-31.6,17-31.6C33.6-31.6,47-18.2,47-1.7z"/>
					</g>
				</g>
			</g>
		</g>
		<g>
			<g>
				<g>
					<g>
						<path class="st0" d="M22.4,69.9v4.4h-0.5v-4.4h-1.4v-0.5h3.3v0.5H22.4z"/>
						<path class="st0" d="M27.3,73.8c-0.3,0.3-0.8,0.5-1.2,0.5c-0.5,0-0.9-0.2-1.2-0.5c-0.5-0.5-0.5-0.9-0.5-2c0-1,0-1.5,0.5-2
							c0.3-0.3,0.8-0.5,1.2-0.5c0.5,0,0.9,0.2,1.2,0.5c0.5,0.5,0.5,0.9,0.5,2C27.8,72.9,27.8,73.4,27.3,73.8z M26.9,70.2
							c-0.2-0.2-0.5-0.3-0.8-0.3c-0.3,0-0.6,0.1-0.8,0.3c-0.3,0.3-0.3,0.6-0.3,1.7c0,1,0,1.3,0.3,1.7c0.2,0.2,0.5,0.3,0.8,0.3
							c0.3,0,0.6-0.1,0.8-0.3c0.3-0.3,0.3-0.6,0.3-1.7C27.3,70.9,27.2,70.5,26.9,70.2z"/>
						<path class="st0" d="M32,74.3l-1.5-2.6l-1,1.2v1.4h-0.5v-4.9h0.5v2.8l2.3-2.8h0.6l-1.5,1.9l1.8,3H32z"/>
						<path class="st0" d="M34.9,72.3v2h-0.5v-2L33,69.4h0.6l1.1,2.3l1.1-2.3h0.6L34.9,72.3z"/>
						<path class="st0" d="M39.8,73.8c-0.3,0.3-0.8,0.5-1.2,0.5c-0.5,0-0.9-0.2-1.2-0.5c-0.5-0.5-0.5-0.9-0.5-2c0-1,0-1.5,0.5-2
							c0.3-0.3,0.8-0.5,1.2-0.5c0.5,0,0.9,0.2,1.2,0.5c0.5,0.5,0.5,0.9,0.5,2C40.3,72.9,40.3,73.4,39.8,73.8z M39.4,70.2
							c-0.2-0.2-0.5-0.3-0.8-0.3c-0.3,0-0.6,0.1-0.8,0.3c-0.3,0.3-0.3,0.6-0.3,1.7c0,1,0,1.3,0.3,1.7c0.2,0.2,0.5,0.3,0.8,0.3
							c0.3,0,0.6-0.1,0.8-0.3c0.3-0.3,0.3-0.6,0.3-1.7C39.7,70.9,39.7,70.5,39.4,70.2z"/>
					</g>
				</g>
			</g>
			<g>
				<g>
					<g>
						<path class="st0" d="M14,60.5h2.8c1.4,0,2.7,0.6,2.7,1.9c0,0.8-0.4,1.3-0.6,1.5c-0.4,0.4-1.1,0.6-2.2,0.6c-0.2,0-0.4,0-0.7,0
							v1.8c0,0.8,0.2,0.9,1,0.9v0.2h-3v-0.2c0.9-0.1,0.9-0.3,0.9-1.1v-4.5c0-0.7-0.1-0.9-0.9-0.9V60.5z M16.1,63.9
							c0.2,0,0.3,0,0.5,0c0.4,0,1.7,0.1,1.7-1.5c0-1.5-1.3-1.5-1.8-1.5c-0.3,0-0.4,0-0.4,0.4V63.9z"/>
						<path class="st0" d="M27,67.5h-1.8l-2.4-3.2l-0.4,0v2.1c0,0.7,0.1,0.9,0.9,0.9v0.2h-3v-0.2c0.8-0.1,0.9-0.3,0.9-1.1v-4.5
							c0-0.8-0.2-0.9-0.9-0.9v-0.2h3c0.9,0,2.6,0.2,2.6,1.8c0,1.4-1.3,1.7-1.8,1.8l2.1,2.7c0.2,0.3,0.5,0.5,0.9,0.5V67.5z
							 M22.4,63.9c0.9,0,2.2,0,2.2-1.5c0-1.4-1.2-1.4-1.6-1.4c-0.5,0-0.6,0.1-0.6,0.4V63.9z"/>
						<path class="st0" d="M27.5,67.3c0.9,0,1-0.2,1-0.9v-4.7c0-0.8-0.1-0.9-1-0.9v-0.2h3.2v0.2c-0.7,0-1,0.1-1,0.9v4.7
							c0,0.8,0.2,0.9,1,0.9v0.2h-3.2V67.3z"/>
						<path class="st0" d="M47.5,67.5h-5.3v-0.2c0.7,0,0.9-0.3,0.9-1.1v-4.3c0-0.8-0.2-1.1-0.9-1.1v-0.2h5.3l0,1.7h-0.3
							c-0.2-0.9-0.4-1.1-1.5-1.1h-1.1c-0.2,0-0.3,0-0.3,0.4v2.1h1c0.9,0,1-0.3,1.1-1h0.2v2.6h-0.2c-0.1-0.8-0.3-1-1.1-1l-1,0v2.4
							c0,0.4-0.3,0.4,1.2,0.4c1.3,0,1.8-0.3,2.2-1.4H48L47.5,67.5z"/>
					</g>
				</g>
				<path class="st0" d="M41.1,59.9v-0.2H39l-2.5,6l-2.6-5.1h-2.2v0.2c0.8,0,1,0.1,1,0.9v4.3c0,1.1-0.2,1.3-1,1.3v0.2h2.6v-0.2
					c-0.7,0-1-0.3-1-1.3V62l2.7,5.5h0.3l2.7-6.5v5.2c0,0.9-0.1,1-0.9,1.1v0.2h3v-0.2c-0.7,0-0.9-0.1-0.9-0.9v-5.5
					C40.3,60,40.5,59.9,41.1,59.9z"/>
			</g>
		</g>
	</g>
</g>
</svg>
